<svg xmlns="http://www.w3.org/2000/svg" width="1200" height="900" viewBox="0 0 1200 900" fill="none">
  <rect width="1200" height="900" fill="#F9F6F0"/>
  <rect x="80" y="80" width="1040" height="740" rx="28" fill="#EAF1E7" stroke="#A9C3A0" stroke-width="6"/>
  <path d="M190 710C250 560 330 500 420 500C500 500 560 550 610 640" stroke="#4A6741" stroke-width="18" stroke-linecap="round"/>
  <path d="M580 700C650 540 730 470 830 470C930 470 1010 540 1050 650" stroke="#4A6741" stroke-width="18" stroke-linecap="round"/>
  <circle cx="440" cy="470" r="86" fill="#7FA772"/>
  <circle cx="370" cy="450" r="76" fill="#6E9864"/>
  <circle cx="520" cy="450" r="72" fill="#8CB980"/>
  <circle cx="830" cy="430" r="90" fill="#7FA772"/>
  <circle cx="760" cy="420" r="78" fill="#6E9864"/>
  <circle cx="910" cy="430" r="74" fill="#8CB980"/>
  <circle cx="400" cy="470" r="10" fill="#D3544A"/>
  <circle cx="465" cy="455" r="11" fill="#D3544A"/>
  <circle cx="505" cy="495" r="9" fill="#D3544A"/>
  <circle cx="790" cy="430" r="10" fill="#D3544A"/>
  <circle cx="860" cy="460" r="11" fill="#D3544A"/>
  <circle cx="905" cy="405" r="9" fill="#D3544A"/>
  <rect x="130" y="730" width="940" height="42" rx="21" fill="#C8A287"/>
  <text x="600" y="788" text-anchor="middle" font-family="Inter, Arial, sans-serif" font-size="34" fill="#784A32">
    Demo obrázek: výsadba mladých jabloní
  </text>
</svg>
