<svg xmlns="http://www.w3.org/2000/svg" width="1200" height="900" viewBox="0 0 1200 900" fill="none">
  <rect width="1200" height="900" fill="#F9F6F0"/>
  <rect x="70" y="70" width="1060" height="760" rx="30" fill="#EFE7DD" stroke="#C8A287" stroke-width="6"/>
  <rect x="140" y="180" width="920" height="540" rx="24" fill="#FFF8EE" stroke="#D8C0AA"/>
  <path d="M260 650C310 520 380 450 470 450C560 450 620 510 660 600" stroke="#784A32" stroke-width="18" stroke-linecap="round"/>
  <path d="M660 650C710 520 780 450 870 450C950 450 1020 510 1050 590" stroke="#784A32" stroke-width="18" stroke-linecap="round"/>
  <circle cx="470" cy="420" r="76" fill="#89AF7E"/>
  <circle cx="410" cy="415" r="66" fill="#6E9864"/>
  <circle cx="530" cy="420" r="62" fill="#9BC28F"/>
  <circle cx="870" cy="420" r="78" fill="#89AF7E"/>
  <circle cx="810" cy="415" r="66" fill="#6E9864"/>
  <circle cx="930" cy="420" r="62" fill="#9BC28F"/>
  <circle cx="448" cy="445" r="10" fill="#E89A5E"/>
  <circle cx="500" cy="400" r="9" fill="#E89A5E"/>
  <circle cx="860" cy="440" r="10" fill="#E89A5E"/>
  <circle cx="920" cy="390" r="9" fill="#E89A5E"/>
  <text x="600" y="770" text-anchor="middle" font-family="Inter, Arial, sans-serif" font-size="34" fill="#784A32">
    Demo obrázek: návrat starých odrůd
  </text>
</svg>
